# xmcd CD database file
#
# Track frame offsets:
#	150
#	25036
#	52495
#	71877
#	108938
#	123141
#	153725
#	177030
#	203847
#
# Disc length: 2842 seconds
#
# Revision: 0
# Processed by: cddbd v1.5.2PL0 Copyright (c) Steve Scherf et al.
# Submitted via: CDex 1.73
#
DISCID=7c0b1809
DTITLE=Paris Jazz Underground - Paris Jazz Underground
DYEAR=2012
DGENRE=Jazz
TTITLE0=Moon Woman
TTITLE1=The 1000 Yard Stare
TTITLE2=Fomm ir-Rih
TTITLE3=PJU Blues
TTITLE4=Pollock
TTITLE5=Stealth
TTITLE6=Edmonton Sound
TTITLE7=Ah ba ba ba
TTITLE8=For F. Mompou
EXTD=YEAR: 2012
EXTT0=
EXTT1=
EXTT2=
EXTT3=
EXTT4=
EXTT5=
EXTT6=
EXTT7=
EXTT8=
PLAYORDER=
